<?xml version="1.0" encoding="iso-8859-1"?>
<!-- Uploaded to: SVG Repo, www.svgrepo.com, Generator: SVG Repo Mixer Tools -->
<svg fill="#000000" height="100px" width="100px" version="1.1" id="Layer_1" xmlns="http://www.w3.org/2000/svg" xmlns:xlink="http://www.w3.org/1999/xlink" 
	 viewBox="0 0 511.999 511.999" xml:space="preserve">
<g>
	<g>
		<circle cx="255.844" cy="43.691" r="43.691"/>
	</g>
</g>
<g>
	<g>
		<path d="M503.058,75.973c-4.067-9.944-15.427-14.709-25.371-10.641l-84.671,34.634l-81.573,3.613H199.786l-80.803-3.613
			L34.312,65.331c-9.943-4.066-21.303,0.697-25.371,10.641c-4.067,9.944,0.697,21.303,10.641,25.371l87.746,35.892
			c2.035,0.833,4.197,1.313,6.392,1.424l86.066,4.31V260.79l-65.483,70.411c-12.528,13.469-6.909,35.414,10.525,41.224
			c121.223,40.4,112.766,37.816,116.481,38.275v76.003c0,13.97,11.325,25.295,25.295,25.295c13.97,0,25.066-11.325,25.066-25.295
			c0-5.939,0-343.696,0-343.696l86.608-4.348c2.195-0.11,4.357-0.591,6.392-1.424l87.746-35.892
			C502.361,97.275,507.125,85.917,503.058,75.973z M261.31,357.919l-63.183-21.057c49.665-53.403,46.357-49.609,48.145-52.349
			c1.881,0,13.155,0,15.039,0V357.919z"/>
	</g>
</g>
</svg>